<svg width="186" height="50" viewBox="0 0 186 50" fill="none" xmlns="http://www.w3.org/2000/svg">
<path d="M55.0208 29.0208C58.2089 25.8327 60 21.5087 60 17C60 12.4913 58.2089 8.1673 55.0208 4.97919C51.8327 1.79107 47.5087 8.10688e-07 43 0C38.4913 -8.10688e-07 34.1673 1.79106 30.9792 4.97918L43 17L55.0208 29.0208Z" fill="#D9D9D9"/>
<path d="M4.97918 29.0208C1.79107 25.8327 3.35923e-07 21.5087 0 17C-3.35923e-07 12.4913 1.79107 8.1673 4.97918 4.97919C8.1673 1.79107 12.4913 8.10688e-07 17 0C21.5087 -8.10688e-07 25.8327 1.79106 29.0208 4.97918L17 17L4.97918 29.0208Z" fill="#D9D9D9"/>
<path d="M31 5L35 9L28 16.5L23.5 12.5L31 5Z" fill="#D9D9D9"/>
<path d="M28 16.5C27.7845 16.8298 27.0177 17.2548 26.6924 17.4771C26.3671 17.6993 26.0012 17.8553 25.6156 17.9362C25.2301 18.017 24.8323 18.0211 24.4452 17.9482C24.058 17.8754 23.689 17.727 23.3591 17.5115C23.0293 17.296 22.7452 17.0177 22.5229 16.6924C22.3007 16.3671 22.1447 16.0012 22.0638 15.6156C21.983 15.23 21.9789 14.8323 22.0518 14.4451C22.1246 14.058 23.2845 12.8298 23.5 12.5L25 13.5L26 14.5L28 16.5Z" fill="#D9D9D9"/>
<ellipse cx="10.2966" cy="29.3843" rx="2.23367" ry="3.90892" transform="rotate(42.8789 10.2966 29.3843)" fill="#D9D9D9"/>
<ellipse cx="15.2966" cy="34.3843" rx="2.23367" ry="3.90892" transform="rotate(42.8789 15.2966 34.3843)" fill="#D9D9D9"/>
<ellipse cx="20.2966" cy="39.3843" rx="2.23367" ry="3.90892" transform="rotate(42.8789 20.2966 39.3843)" fill="#D9D9D9"/>
<ellipse cx="25.2966" cy="44.3843" rx="2.23367" ry="3.90892" transform="rotate(42.8789 25.2966 44.3843)" fill="#D9D9D9"/>
<ellipse cx="48.7231" cy="30.5595" rx="2.23464" ry="4.09095" transform="rotate(-43.7424 48.7231 30.5595)" fill="#D9D9D9"/>
<path d="M45.3587 33.7856C46.8827 35.378 47.3932 37.3626 46.499 38.2184C45.6047 39.0742 43.6444 38.4771 42.1204 36.8847C40.5965 35.2923 40.086 33.3077 40.9802 32.4519C41.8744 31.5961 43.8347 32.1932 45.3587 33.7856Z" fill="#D9D9D9"/>
<path d="M40.229 38.7073C41.7529 40.2997 42.2635 42.2843 41.3692 43.1401C40.475 43.9959 38.5147 43.3988 36.9907 41.8064C35.4667 40.2141 34.9562 38.2294 35.8505 37.3736C36.7447 36.5178 38.705 37.1149 40.229 38.7073Z" fill="#D9D9D9"/>
<path d="M35 43.5C36.524 45.0924 37.0345 47.077 36.1403 47.9328C35.246 48.7886 33.2857 48.1915 31.7617 46.5991C30.2378 45.0068 31.1081 41.9725 32.0024 41.1167C32.8966 40.2609 33.476 41.9076 35 43.5Z" fill="#D9D9D9"/>
<rect x="37.0244" y="22.4483" width="4.41377" height="13.4965" transform="rotate(-46.3552 37.0244 22.4483)" fill="#D9D9D9"/>
<rect x="32" y="27.1939" width="4.41377" height="13.4965" transform="rotate(-46.3552 32 27.1939)" fill="#D9D9D9"/>
<rect x="27" y="32.1939" width="4.41377" height="13.4965" transform="rotate(-46.3552 27 32.1939)" fill="#D9D9D9"/>
<rect x="34.5695" y="13.818" width="8.10612" height="18.3536" transform="rotate(44.4293 34.5695 13.818)" fill="#D9D9D9"/>
<path d="M32 21C32 23.2091 24.4475 29.1954 22.2384 29.1954C20.0292 29.1954 14 17.7091 14 15.5C14 14.8142 17.3737 12.5725 18.5 13.5C19.281 14.1431 18.1833 17.7497 19 18.5C20.7996 20.1533 21.5513 21.2628 22.5 21.5C25 22.5 32 18.7909 32 21Z" fill="#D9D9D9"/>
<path d="M21.5 27C21.3159 27.2308 26.3632 30.1893 26 31C25.9496 31.1126 25.241 32.0687 24.5424 32.3979C24.3567 32.4855 24.1717 32.5287 24 32.5C23.4035 32.4003 23.5921 34.39 23 34C22.7394 33.8283 21.8028 33.8748 21.5 33.5C21.1597 33.0787 21.2151 32.5338 21 32C20.5895 30.9811 20.0609 30.0025 20 30C19.6753 29.9868 17.3736 29.0756 17 29C15.5634 28.7092 15.627 26.3112 14.2504 25.2133C13.7373 24.804 13.218 24.5552 12.5 24C11.9766 23.5953 8.18952 24.3967 8 24C7.13675 22.1931 11.3028 18.9406 11.8689 18.2308C12.7298 17.1514 16.5279 17.9513 19.1185 20.0175C21.7091 22.0838 22.3609 25.9206 21.5 27Z" fill="#D9D9D9"/>
<rect x="23.6551" y="31.6974" width="13.4807" height="1.17666" transform="rotate(45.0154 23.6551 31.6974)" fill="#D9D9D9"/>
<path d="M32.5 42C32.5 42.1865 32.7437 43.5592 32 43C31.4898 42.6164 30.1035 40.3798 29.5 40C28.3777 39.2937 27.2379 39 27 39C26.4477 39 26 38.5523 26 38C26 37.756 25.3354 36.1541 24.5 35C24.0755 34.4135 22.8739 33.9111 22.5 33.5C21.9441 32.8889 22.3157 32.5 22.5 32.5C23.0523 32.5 32.5 41.4477 32.5 42Z" fill="#D9D9D9"/>
<path d="M83.5682 13.5455H85.6818V25.1023C85.6818 26.2955 85.4006 27.3608 84.8381 28.2983C84.2813 29.2301 83.4943 29.9659 82.4773 30.5057C81.4602 31.0398 80.267 31.3068 78.8977 31.3068C77.5284 31.3068 76.3352 31.0398 75.3182 30.5057C74.3011 29.9659 73.5114 29.2301 72.9489 28.2983C72.392 27.3608 72.1136 26.2955 72.1136 25.1023V13.5455H74.2273V24.9318C74.2273 25.7841 74.4148 26.5426 74.7898 27.2074C75.1648 27.8665 75.6989 28.3864 76.392 28.767C77.0909 29.142 77.9261 29.3295 78.8977 29.3295C79.8693 29.3295 80.7045 29.142 81.4034 28.767C82.1023 28.3864 82.6364 27.8665 83.0057 27.2074C83.3807 26.5426 83.5682 25.7841 83.5682 24.9318V13.5455ZM90.6186 31H88.4027L94.8118 13.5455H96.9936L103.403 31H101.187L95.9709 16.3068H95.8345L90.6186 31ZM91.4368 24.1818H100.369V26.0568H91.4368V24.1818ZM112.871 31V13.5455H114.985V21.3182H124.292V13.5455H126.406V31H124.292V23.1932H114.985V31H112.871ZM135.853 31.2727C134.592 31.2727 133.504 30.9943 132.589 30.4375C131.68 29.875 130.978 29.0909 130.484 28.0852C129.995 27.0739 129.751 25.8977 129.751 24.5568C129.751 23.2159 129.995 22.0341 130.484 21.0114C130.978 19.983 131.665 19.1818 132.546 18.608C133.433 18.0284 134.467 17.7386 135.648 17.7386C136.33 17.7386 137.004 17.8523 137.668 18.0795C138.333 18.3068 138.938 18.6761 139.484 19.1875C140.029 19.6932 140.464 20.3636 140.788 21.1989C141.112 22.0341 141.273 23.0625 141.273 24.2841V25.1364H131.183V23.3977H139.228C139.228 22.6591 139.08 22 138.785 21.4205C138.495 20.8409 138.08 20.3835 137.54 20.0483C137.006 19.7131 136.376 19.5455 135.648 19.5455C134.847 19.5455 134.154 19.7443 133.569 20.142C132.989 20.5341 132.543 21.0455 132.231 21.6761C131.918 22.3068 131.762 22.983 131.762 23.7045V24.8636C131.762 25.8523 131.933 26.6903 132.273 27.3778C132.62 28.0597 133.1 28.5795 133.714 28.9375C134.327 29.2898 135.04 29.4659 135.853 29.4659C136.381 29.4659 136.859 29.392 137.285 29.2443C137.717 29.0909 138.089 28.8636 138.401 28.5625C138.714 28.2557 138.955 27.875 139.126 27.4205L141.069 27.9659C140.864 28.625 140.521 29.2045 140.038 29.7045C139.555 30.1989 138.958 30.5852 138.248 30.8636C137.538 31.1364 136.739 31.2727 135.853 31.2727ZM146.344 13.5455V31H144.333V13.5455H146.344ZM150.028 35.9091V17.9091H151.972V19.9886H152.21C152.358 19.7614 152.563 19.4716 152.824 19.1193C153.091 18.7614 153.472 18.4432 153.966 18.1648C154.466 17.8807 155.142 17.7386 155.994 17.7386C157.097 17.7386 158.068 18.0142 158.909 18.5653C159.75 19.1165 160.406 19.8977 160.878 20.9091C161.349 21.9205 161.585 23.1136 161.585 24.4886C161.585 25.875 161.349 27.0767 160.878 28.0938C160.406 29.1051 159.753 29.8892 158.918 30.446C158.082 30.9972 157.119 31.2727 156.028 31.2727C155.188 31.2727 154.514 31.1335 154.009 30.8551C153.503 30.571 153.114 30.25 152.841 29.892C152.568 29.5284 152.358 29.2273 152.21 28.9886H152.04V35.9091H150.028ZM152.006 24.4545C152.006 25.4432 152.151 26.3153 152.44 27.071C152.73 27.821 153.153 28.4091 153.71 28.8352C154.267 29.2557 154.949 29.4659 155.756 29.4659C156.597 29.4659 157.298 29.2443 157.861 28.8011C158.429 28.3523 158.855 27.75 159.139 26.9943C159.429 26.233 159.574 25.3864 159.574 24.4545C159.574 23.5341 159.432 22.7045 159.148 21.9659C158.869 21.2216 158.446 20.6335 157.878 20.2017C157.315 19.7642 156.608 19.5455 155.756 19.5455C154.938 19.5455 154.25 19.7528 153.693 20.1676C153.136 20.5767 152.716 21.1506 152.432 21.8892C152.148 22.6222 152.006 23.4773 152.006 24.4545ZM170.142 31.2727C168.881 31.2727 167.793 30.9943 166.878 30.4375C165.969 29.875 165.267 29.0909 164.773 28.0852C164.284 27.0739 164.04 25.8977 164.04 24.5568C164.04 23.2159 164.284 22.0341 164.773 21.0114C165.267 19.983 165.955 19.1818 166.835 18.608C167.722 18.0284 168.756 17.7386 169.938 17.7386C170.619 17.7386 171.293 17.8523 171.957 18.0795C172.622 18.3068 173.227 18.6761 173.773 19.1875C174.318 19.6932 174.753 20.3636 175.077 21.1989C175.401 22.0341 175.562 23.0625 175.562 24.2841V25.1364H165.472V23.3977H173.517C173.517 22.6591 173.369 22 173.074 21.4205C172.784 20.8409 172.369 20.3835 171.83 20.0483C171.295 19.7131 170.665 19.5455 169.938 19.5455C169.136 19.5455 168.443 19.7443 167.858 20.142C167.278 20.5341 166.832 21.0455 166.52 21.6761C166.207 22.3068 166.051 22.983 166.051 23.7045V24.8636C166.051 25.8523 166.222 26.6903 166.562 27.3778C166.909 28.0597 167.389 28.5795 168.003 28.9375C168.616 29.2898 169.33 29.4659 170.142 29.4659C170.67 29.4659 171.148 29.392 171.574 29.2443C172.006 29.0909 172.378 28.8636 172.69 28.5625C173.003 28.2557 173.244 27.875 173.415 27.4205L175.358 27.9659C175.153 28.625 174.81 29.2045 174.327 29.7045C173.844 30.1989 173.247 30.5852 172.537 30.8636C171.827 31.1364 171.028 31.2727 170.142 31.2727ZM178.622 31V17.9091H180.565V19.8864H180.702C180.94 19.2386 181.372 18.7131 181.997 18.3097C182.622 17.9062 183.327 17.7045 184.111 17.7045C184.259 17.7045 184.443 17.7074 184.665 17.7131C184.886 17.7187 185.054 17.7273 185.168 17.7386V19.7841C185.099 19.767 184.943 19.7415 184.699 19.7074C184.46 19.6676 184.207 19.6477 183.94 19.6477C183.304 19.6477 182.736 19.7812 182.236 20.0483C181.741 20.3097 181.349 20.6733 181.06 21.1392C180.776 21.5994 180.634 22.125 180.634 22.7159V31H178.622Z" fill="white"/>
</svg>
